<?xml version="1.0" encoding="UTF-8"?>
<svg xmlns="http://www.w3.org/2000/svg" viewBox="0 0 800 800" width="800" height="800">
  <defs>
    <linearGradient id="bg" x1="0%" y1="0%" x2="100%" y2="100%">
      <stop offset="0%" style="stop-color:#FFFDF9"/>
      <stop offset="100%" style="stop-color:#FAF7F2"/>
    </linearGradient>
    <radialGradient id="spot" cx="50%" cy="40%" r="50%">
      <stop offset="0%" style="stop-color:#fff;stop-opacity:0.9"/>
      <stop offset="100%" style="stop-color:#FAF7F2;stop-opacity:0"/>
    </radialGradient>
    <filter id="shadow" x="-20%" y="-20%" width="140%" height="140%">
      <feDropShadow dx="0" dy="8" stdDeviation="12" flood-color="#3D2914" flood-opacity="0.15"/>
    </filter>
  </defs>
  <rect width="800" height="800" fill="url(#bg)"/>
  <rect width="800" height="800" fill="url(#spot)"/>
  <g filter="url(#shadow)"><linearGradient id="b" x1="0%" y1="0%" x2="100%" y2="100%">
    <stop offset="0%" style="stop-color:#F5E6B8"/>
    <stop offset="40%" style="stop-color:#E8C872"/>
    <stop offset="100%" style="stop-color:#8B6914"/>
  </linearGradient><g transform="translate(-120,-40)">
        <ellipse cx="400" cy="520" rx="45" ry="8" fill="url(#b)"/>
        <path d="M370 520 L400 460 L430 520 Z" fill="url(#b)"/>
        <ellipse cx="400" cy="455" rx="12" ry="18" fill="#FF9933" opacity="0.7"/>
      </g><g transform="translate(-40,-10)">
        <ellipse cx="400" cy="520" rx="45" ry="8" fill="url(#b)"/>
        <path d="M370 520 L400 460 L430 520 Z" fill="url(#b)"/>
        <ellipse cx="400" cy="455" rx="12" ry="18" fill="#FF9933" opacity="0.7"/>
      </g><g transform="translate(40,-40)">
        <ellipse cx="400" cy="520" rx="45" ry="8" fill="url(#b)"/>
        <path d="M370 520 L400 460 L430 520 Z" fill="url(#b)"/>
        <ellipse cx="400" cy="455" rx="12" ry="18" fill="#FF9933" opacity="0.7"/>
      </g><g transform="translate(120,-10)">
        <ellipse cx="400" cy="520" rx="45" ry="8" fill="url(#b)"/>
        <path d="M370 520 L400 460 L430 520 Z" fill="url(#b)"/>
        <ellipse cx="400" cy="455" rx="12" ry="18" fill="#FF9933" opacity="0.7"/>
      </g><g transform="translate(0,-40)">
      <ellipse cx="400" cy="520" rx="55" ry="10" fill="url(#b)"/>
      <path d="M360 520 L400 440 L440 520 Z" fill="url(#b)"/>
      <ellipse cx="400" cy="435" rx="18" ry="28" fill="#FF9933" opacity="0.85"/>
    </g></g>
  <text x="400" y="720" text-anchor="middle" font-family="Georgia, serif" font-size="22" fill="#3D2914" opacity="0.85">Brass Diya Set of 5</text>
  <text x="400" y="748" text-anchor="middle" font-family="Arial, sans-serif" font-size="13" fill="#8B6914" opacity="0.6">Panch Deep · Five Lamps</text>
</svg>